<svg width="42" height="42" viewBox="0 0 42 42" fill="none" xmlns="http://www.w3.org/2000/svg">
<path fill-rule="evenodd" clip-rule="evenodd" d="M24.5001 21L34.2021 11.298C35.2224 10.2777 35.2696 8.65373 34.3071 7.69298C33.3464 6.73048 31.7224 6.77773 30.7021 7.79798L21.0001 17.5L11.2981 7.79798C10.2779 6.77773 8.65385 6.73048 7.6931 7.69298C6.7306 8.65373 6.77785 10.2777 7.7981 11.298L17.5001 21L7.7981 30.702C6.77785 31.7222 6.7306 33.3462 7.6931 34.307C8.65385 35.2695 10.2779 35.2222 11.2981 34.202L21.0001 24.5L30.7021 34.202C31.7224 35.2222 33.3464 35.2695 34.3071 34.307C35.2696 33.3462 35.2224 31.7222 34.2021 30.702L24.5001 21Z" fill="#565B5C"/>
</svg>
