<svg width="40" height="23" viewBox="0 0 40 23" fill="none" xmlns="http://www.w3.org/2000/svg">
<path d="M21.7475 21.6996C21.3513 22.0912 20.8167 22.3108 20.2597 22.3108C19.7026 22.3108 19.168 22.0912 18.7718 21.6996L1.77721 4.71981C1.54565 4.53355 1.35591 4.30061 1.22035 4.03615C1.08478 3.7717 1.00643 3.48166 0.990393 3.18491C0.974355 2.88817 1.02099 2.59137 1.12726 2.31385C1.23353 2.03632 1.39706 1.78429 1.6072 1.57415C1.81733 1.36402 2.06937 1.20049 2.34689 1.09422C2.62442 0.987948 2.92121 0.941311 3.21796 0.95735C3.5147 0.973387 3.80474 1.05174 4.06919 1.1873C4.33365 1.32287 4.56659 1.51261 4.75285 1.74417L21.7475 18.7053C21.9442 18.9019 22.1002 19.1353 22.2067 19.3922C22.3132 19.649 22.368 19.9244 22.368 20.2025C22.368 20.4805 22.3132 20.7559 22.2067 21.0128C22.1002 21.2696 21.9442 21.503 21.7475 21.6996Z" fill="#A2ADC9"/>
<path d="M38.8205 1.72596C39.2121 2.12214 39.4317 2.65673 39.4317 3.21378C39.4317 3.77084 39.2121 4.30543 38.8205 4.7016L21.8407 21.7C21.6545 21.9315 21.4215 22.1213 21.1571 22.2568C20.8926 22.3924 20.6026 22.4707 20.3058 22.4868C20.0091 22.5028 19.7123 22.4562 19.4348 22.3499C19.1573 22.2436 18.9052 22.0801 18.6951 21.87C18.4849 21.6598 18.3214 21.4078 18.2151 21.1303C18.1089 20.8528 18.0622 20.556 18.0783 20.2592C18.0943 19.9625 18.1727 19.6724 18.3082 19.408C18.4438 19.1435 18.6335 18.9106 18.8651 18.7243L35.8263 1.72596C36.0228 1.52926 36.2562 1.37321 36.5131 1.26675C36.77 1.16029 37.0453 1.10549 37.3234 1.10549C37.6015 1.10549 37.8768 1.16029 38.1337 1.26675C38.3906 1.37321 38.624 1.52926 38.8205 1.72596Z" fill="#A2ADC9"/>
</svg>
